<svg version="1.1" id="Layer_1" xmlns="http://www.w3.org/2000/svg" xmlns:xlink="http://www.w3.org/1999/xlink" x="0px" y="0px"
	 width="100%" viewBox="0 0 891 893" enable-background="new 0 0 891 893" xml:space="preserve">
<path fill="#243B6E" opacity="1.000000" stroke="none" 
	d="
M418.000000,894.000000 
	C415.299988,894.000000 412.599976,894.000000 409.474182,893.599731 
	C407.868011,892.476135 406.746735,891.268738 405.496704,891.116089 
	C400.900909,890.554871 396.264191,890.317200 391.639557,890.007141 
	C385.629608,889.604248 379.548889,889.677551 373.624939,888.744141 
	C368.365387,887.915405 363.313293,885.848328 358.108215,884.579895 
	C345.085022,881.406250 331.906006,878.921021 319.139038,874.653015 
	C310.343781,871.712708 301.201111,869.817871 292.382446,866.938782 
	C287.926483,865.484070 283.784607,862.995911 279.605408,860.777710 
	C265.317078,853.193909 249.342880,849.279724 235.772858,840.025696 
	C226.627213,833.788757 216.665451,828.763062 207.327255,822.791382 
	C177.723602,803.860229 150.894272,781.538452 126.600540,756.146057 
	C121.478348,750.792175 115.607254,746.100281 110.879517,740.436890 
	C104.557869,732.864136 99.174835,724.516907 93.105904,716.722473 
	C78.462517,697.915649 65.660088,677.909729 54.557549,656.866333 
	C41.083576,631.328186 30.148151,604.721558 21.824772,577.014648 
	C12.222394,545.050171 6.141552,512.506958 3.884438,479.210968 
	C3.650362,475.758026 1.995585,472.401337 1.000001,469.000000 
	C1.000000,463.645081 1.000000,458.290131 1.392892,452.348907 
	C2.189523,450.434784 2.904560,449.117218 2.948574,447.777588 
	C3.363051,435.162598 3.108024,422.498138 4.142548,409.938263 
	C5.320764,395.633850 6.733331,381.237579 9.645633,367.213867 
	C13.738122,347.507263 19.176380,328.072876 24.302050,308.591248 
	C26.606232,299.833557 28.873877,290.960815 32.363693,282.646301 
	C37.050995,271.478729 42.961197,260.827881 48.220280,249.894516 
	C49.566555,247.095673 50.254147,243.979935 51.601070,241.181488 
	C52.342117,239.641861 54.052441,238.593475 54.937344,237.094345 
	C60.321220,227.973328 65.276802,218.584793 70.960472,209.658112 
	C90.383644,179.152283 112.917656,151.218781 139.132721,126.163948 
	C157.806000,108.317139 177.398895,91.693802 199.069870,77.719856 
	C213.425430,68.463051 227.378601,58.640877 242.992355,51.181999 
	C268.903076,38.804127 294.953949,26.916946 322.676392,19.369390 
	C340.663208,14.472400 358.954834,10.509984 377.300751,7.180372 
	C390.107452,4.856081 403.241333,4.348526 416.214783,2.901291 
	C417.201599,2.791208 418.074249,1.657753 419.000000,0.999995 
	C443.687561,1.000000 468.375122,1.000000 493.495850,1.385382 
	C494.769196,2.480112 495.535614,3.679305 496.461609,3.818745 
	C502.171875,4.678630 507.914246,5.333285 513.653320,5.991793 
	C521.521973,6.894642 529.403625,7.686333 537.267395,8.627883 
	C543.165344,9.334045 549.100281,9.921213 554.912476,11.089827 
	C559.194397,11.950758 563.459534,13.320989 567.440186,15.112896 
	C570.390869,16.441154 572.632629,19.411896 575.609558,20.600906 
	C583.325562,23.682709 591.260925,26.220226 599.130737,28.910696 
	C620.313782,36.152618 640.460327,45.611107 660.050903,56.439877 
	C688.699402,72.275398 715.516907,90.792007 739.767944,112.639229 
	C757.215393,128.357208 773.318726,145.604202 789.527466,162.639282 
	C795.011353,168.402695 798.942444,175.634766 803.652100,182.145752 
	C810.018005,190.946411 816.924011,199.399475 822.717041,208.559006 
	C828.174133,217.187378 832.275024,226.660355 837.347290,235.547897 
	C850.437988,258.485535 860.624695,282.757843 868.569336,307.802490 
	C875.382202,329.279724 880.154114,351.407257 885.691406,373.281952 
	C886.248901,375.484375 885.699707,377.943024 885.932129,380.255829 
	C886.906921,389.957642 887.835205,399.668976 889.120422,409.331604 
	C889.471191,411.968781 891.007629,414.448212 892.000000,417.000000 
	C892.000000,418.714355 892.000000,420.428711 891.612000,422.698303 
	C890.825012,426.909363 890.281189,430.559296 890.130432,434.225403 
	C890.093445,435.123108 891.342285,436.073730 892.000000,437.000000 
	C892.000000,448.354218 892.000000,459.708466 891.584961,471.562195 
	C890.780457,473.578461 890.127625,475.081146 890.045654,476.614349 
	C889.624695,484.485565 889.637390,492.390778 888.921509,500.231445 
	C888.464600,505.235687 887.012024,510.149750 885.993835,515.101746 
	C882.859802,530.344299 879.815857,545.606201 876.547058,560.819824 
	C874.546997,570.128662 871.471619,579.269531 870.268066,588.663757 
	C869.497009,594.682190 867.743469,599.802734 864.616882,604.787964 
	C862.189148,608.658997 859.839600,612.637817 858.013550,616.812866 
	C855.580933,622.374878 854.063660,628.350769 851.470520,633.825562 
	C848.297119,640.525208 844.362915,646.861145 840.858826,653.408447 
	C837.598511,659.500061 834.696594,665.793518 831.235596,671.765503 
	C825.041382,682.453735 818.321777,692.841248 812.269897,703.606445 
	C809.223022,709.026428 806.322021,714.244934 800.844421,717.677185 
	C799.147339,718.740479 798.087158,720.848328 796.793579,722.522888 
	C791.171570,729.800842 786.028503,737.513733 779.844116,744.275391 
	C772.518188,752.285095 764.342896,759.523560 756.460083,767.016785 
	C746.664978,776.327698 736.869141,785.641235 726.890625,794.753296 
	C724.823059,796.641418 721.811035,797.450073 719.478455,799.101135 
	C710.032593,805.786926 700.898926,812.935120 691.255188,819.315979 
	C663.296692,837.815063 633.721497,853.227661 602.317444,865.095032 
	C594.331360,868.112915 586.163147,871.041687 578.848999,875.326660 
	C572.429321,879.087524 566.110168,880.598511 558.965759,879.835510 
	C558.010681,879.733521 556.997498,879.358704 556.110962,879.556641 
	C546.747070,881.646851 537.432983,883.968262 528.045715,885.942993 
	C519.197083,887.804382 510.334473,889.823853 501.372284,890.856079 
	C492.745758,891.849609 483.979034,891.584045 475.286163,892.084778 
	C473.825531,892.168945 472.427155,893.334290 471.000000,894.000000 
	C455.645782,894.000000 440.291534,894.000000 424.467041,893.615662 
	C421.749634,891.551392 419.619873,890.786743 418.000000,894.000000 
M864.742126,525.162537 
	C870.151733,496.134949 872.099487,466.818024 871.958313,437.338562 
	C871.939209,433.366669 871.432922,429.387085 870.992310,425.428894 
	C868.862549,406.297302 867.685669,386.991821 864.308655,368.080566 
	C856.711487,325.536316 842.286377,285.241333 822.075439,246.960159 
	C805.352905,215.286377 785.147217,186.064957 761.004456,159.729324 
	C738.243713,134.901382 713.190918,112.508347 685.101929,93.695450 
	C649.743530,70.013855 611.948975,51.460911 571.139038,39.166946 
	C526.390625,25.686535 480.792816,18.432684 433.969727,21.086113 
	C415.922028,22.108864 397.815094,23.432812 379.949646,26.071768 
	C326.952057,33.900200 277.536469,52.169510 231.454056,79.388725 
	C189.548447,104.140862 153.047562,135.285355 121.757668,172.605286 
	C100.484756,197.977814 81.941643,225.216202 67.769127,255.063095 
	C58.305557,274.993073 50.443481,295.772614 43.131252,316.616272 
	C28.464167,358.425201 22.882719,401.901855 22.132475,446.011932 
	C21.912626,458.937775 22.591351,471.975098 24.115837,484.811951 
	C26.424021,504.247986 28.863783,523.761780 32.974453,542.871155 
	C41.851124,584.136292 57.330498,622.986572 78.252815,659.709717 
	C93.804741,687.006714 111.928169,712.452881 133.240662,735.429443 
	C146.001465,749.186584 159.945969,761.919861 174.010498,774.377136 
	C198.166168,795.772522 225.217514,813.085876 253.841980,827.833008 
	C278.608521,840.592468 304.526123,850.583984 331.336517,858.288818 
	C361.678375,867.008423 392.649200,872.381653 424.091400,873.756592 
	C451.487671,874.954529 478.933716,874.331726 506.237823,870.212341 
	C532.150757,866.302856 557.564819,860.524109 582.356750,852.183289 
	C608.599182,843.354431 633.754578,832.026245 657.781250,818.163330 
	C685.274231,802.300476 710.930359,783.896973 734.037964,762.202820 
	C746.872742,750.153137 758.745850,737.026855 770.505554,723.896057 
	C789.907166,702.232300 805.836182,678.042175 819.651123,652.533447 
	C841.206604,612.732056 856.471863,570.620117 864.742126,525.162537 
z"/>
<path fill="#000000" opacity="1.000000" stroke="none" 
	d="
M1.000001,469.468658 
	C1.995585,472.401337 3.650362,475.758026 3.884438,479.210968 
	C6.141552,512.506958 12.222394,545.050171 21.824772,577.014648 
	C30.148151,604.721558 41.083576,631.328186 54.557549,656.866333 
	C65.660088,677.909729 78.462517,697.915649 93.105904,716.722473 
	C99.174835,724.516907 104.557869,732.864136 110.879517,740.436890 
	C115.607254,746.100281 121.478348,750.792175 126.600540,756.146057 
	C150.894272,781.538452 177.723602,803.860229 207.327255,822.791382 
	C216.665451,828.763062 226.627213,833.788757 235.772858,840.025696 
	C249.342880,849.279724 265.317078,853.193909 279.605408,860.777710 
	C283.784607,862.995911 287.926483,865.484070 292.382446,866.938782 
	C301.201111,869.817871 310.343781,871.712708 319.139038,874.653015 
	C331.906006,878.921021 345.085022,881.406250 358.108215,884.579895 
	C363.313293,885.848328 368.365387,887.915405 373.624939,888.744141 
	C379.548889,889.677551 385.629608,889.604248 391.639557,890.007141 
	C396.264191,890.317200 400.900909,890.554871 405.496704,891.116089 
	C406.746735,891.268738 407.868011,892.476135 409.024170,893.599731 
	C273.071442,894.000000 137.142868,894.000000 1.000000,894.000000 
	C1.000000,752.645874 1.000000,611.291565 1.000001,469.468658 
z"/>
<path fill="#000000" opacity="1.000000" stroke="none" 
	d="
M418.531342,0.999995 
	C418.074249,1.657753 417.201599,2.791208 416.214783,2.901291 
	C403.241333,4.348526 390.107452,4.856081 377.300751,7.180372 
	C358.954834,10.509984 340.663208,14.472400 322.676392,19.369390 
	C294.953949,26.916946 268.903076,38.804127 242.992355,51.181999 
	C227.378601,58.640877 213.425430,68.463051 199.069870,77.719856 
	C177.398895,91.693802 157.806000,108.317139 139.132721,126.163948 
	C112.917656,151.218781 90.383644,179.152283 70.960472,209.658112 
	C65.276802,218.584793 60.321220,227.973328 54.937344,237.094345 
	C54.052441,238.593475 52.342117,239.641861 51.601070,241.181488 
	C50.254147,243.979935 49.566555,247.095673 48.220280,249.894516 
	C42.961197,260.827881 37.050995,271.478729 32.363693,282.646301 
	C28.873877,290.960815 26.606232,299.833557 24.302050,308.591248 
	C19.176380,328.072876 13.738122,347.507263 9.645633,367.213867 
	C6.733331,381.237579 5.320764,395.633850 4.142548,409.938263 
	C3.108024,422.498138 3.363051,435.162598 2.948574,447.777588 
	C2.904560,449.117218 2.189523,450.434784 1.392892,451.881287 
	C1.000000,301.742371 1.000000,151.484711 1.000000,1.000000 
	C140.020813,1.000000 279.041748,1.000000 418.531342,0.999995 
z"/>
<path fill="#000000" opacity="1.000000" stroke="none" 
	d="
M471.468658,894.000000 
	C472.427155,893.334290 473.825531,892.168945 475.286163,892.084778 
	C483.979034,891.584045 492.745758,891.849609 501.372284,890.856079 
	C510.334473,889.823853 519.197083,887.804382 528.045715,885.942993 
	C537.432983,883.968262 546.747070,881.646851 556.110962,879.556641 
	C556.997498,879.358704 558.010681,879.733521 558.965759,879.835510 
	C566.110168,880.598511 572.429321,879.087524 578.848999,875.326660 
	C586.163147,871.041687 594.331360,868.112915 602.317444,865.095032 
	C633.721497,853.227661 663.296692,837.815063 691.255188,819.315979 
	C700.898926,812.935120 710.032593,805.786926 719.478455,799.101135 
	C721.811035,797.450073 724.823059,796.641418 726.890625,794.753296 
	C736.869141,785.641235 746.664978,776.327698 756.460083,767.016785 
	C764.342896,759.523560 772.518188,752.285095 779.844116,744.275391 
	C786.028503,737.513733 791.171570,729.800842 796.793579,722.522888 
	C798.087158,720.848328 799.147339,718.740479 800.844421,717.677185 
	C806.322021,714.244934 809.223022,709.026428 812.269897,703.606445 
	C818.321777,692.841248 825.041382,682.453735 831.235596,671.765503 
	C834.696594,665.793518 837.598511,659.500061 840.858826,653.408447 
	C844.362915,646.861145 848.297119,640.525208 851.470520,633.825562 
	C854.063660,628.350769 855.580933,622.374878 858.013550,616.812866 
	C859.839600,612.637817 862.189148,608.658997 864.616882,604.787964 
	C867.743469,599.802734 869.497009,594.682190 870.268066,588.663757 
	C871.471619,579.269531 874.546997,570.128662 876.547058,560.819824 
	C879.815857,545.606201 882.859802,530.344299 885.993835,515.101746 
	C887.012024,510.149750 888.464600,505.235687 888.921509,500.231445 
	C889.637390,492.390778 889.624695,484.485565 890.045654,476.614349 
	C890.127625,475.081146 890.780457,473.578461 891.584961,472.030853 
	C892.000000,612.593689 892.000000,753.187317 892.000000,894.000000 
	C751.979187,894.000000 611.958252,894.000000 471.468658,894.000000 
z"/>
<path fill="#000000" opacity="1.000000" stroke="none" 
	d="
M892.000000,416.531372 
	C891.007629,414.448212 889.471191,411.968781 889.120422,409.331604 
	C887.835205,399.668976 886.906921,389.957642 885.932129,380.255829 
	C885.699707,377.943024 886.248901,375.484375 885.691406,373.281952 
	C880.154114,351.407257 875.382202,329.279724 868.569336,307.802490 
	C860.624695,282.757843 850.437988,258.485535 837.347290,235.547897 
	C832.275024,226.660355 828.174133,217.187378 822.717041,208.559006 
	C816.924011,199.399475 810.018005,190.946411 803.652100,182.145752 
	C798.942444,175.634766 795.011353,168.402695 789.527466,162.639282 
	C773.318726,145.604202 757.215393,128.357208 739.767944,112.639229 
	C715.516907,90.792007 688.699402,72.275398 660.050903,56.439877 
	C640.460327,45.611107 620.313782,36.152618 599.130737,28.910696 
	C591.260925,26.220226 583.325562,23.682709 575.609558,20.600906 
	C572.632629,19.411896 570.390869,16.441154 567.440186,15.112896 
	C563.459534,13.320989 559.194397,11.950758 554.912476,11.089827 
	C549.100281,9.921213 543.165344,9.334045 537.267395,8.627883 
	C529.403625,7.686333 521.521973,6.894642 513.653320,5.991793 
	C507.914246,5.333285 502.171875,4.678630 496.461609,3.818745 
	C495.535614,3.679305 494.769196,2.480112 493.964508,1.385382 
	C626.595337,1.000000 759.190674,1.000000 892.000000,1.000000 
	C892.000000,139.354156 892.000000,277.708405 892.000000,416.531372 
z"/>
<path fill="#000000" opacity="1.000000" stroke="none" 
	d="
M892.000000,436.535370 
	C891.342285,436.073730 890.093445,435.123108 890.130432,434.225403 
	C890.281189,430.559296 890.825012,426.909363 891.612000,423.126770 
	C892.000000,427.356903 892.000000,431.713806 892.000000,436.535370 
z"/>
<path fill="#000000" opacity="1.000000" stroke="none" 
	d="
M418.428467,894.000000 
	C419.619873,890.786743 421.749634,891.551392 423.998352,893.615662 
	C422.285645,894.000000 420.571289,894.000000 418.428467,894.000000 
z"/>
<path fill="#081541" opacity="1.000000" stroke="none" 
	d="
M864.624084,525.574219 
	C856.471863,570.620117 841.206604,612.732056 819.651123,652.533447 
	C805.836182,678.042175 789.907166,702.232300 770.505554,723.896057 
	C758.745850,737.026855 746.872742,750.153137 734.037964,762.202820 
	C710.930359,783.896973 685.274231,802.300476 657.781250,818.163330 
	C633.754578,832.026245 608.599182,843.354431 582.356750,852.183289 
	C557.564819,860.524109 532.150757,866.302856 506.237823,870.212341 
	C478.933716,874.331726 451.487671,874.954529 424.091400,873.756592 
	C392.649200,872.381653 361.678375,867.008423 331.336517,858.288818 
	C304.526123,850.583984 278.608521,840.592468 253.841980,827.833008 
	C225.217514,813.085876 198.166168,795.772522 174.010498,774.377136 
	C159.945969,761.919861 146.001465,749.186584 133.240662,735.429443 
	C111.928169,712.452881 93.804741,687.006714 78.252815,659.709717 
	C57.330498,622.986572 41.851124,584.136292 32.974453,542.871155 
	C28.863783,523.761780 26.424021,504.247986 24.115837,484.811951 
	C22.591351,471.975098 21.912626,458.937775 22.132475,446.011932 
	C22.882719,401.901855 28.464167,358.425201 43.131252,316.616272 
	C50.443481,295.772614 58.305557,274.993073 67.769127,255.063095 
	C81.941643,225.216202 100.484756,197.977814 121.757668,172.605286 
	C153.047562,135.285355 189.548447,104.140862 231.454056,79.388725 
	C277.536469,52.169510 326.952057,33.900200 379.949646,26.071768 
	C397.815094,23.432812 415.922028,22.108864 433.969727,21.086113 
	C480.792816,18.432684 526.390625,25.686535 571.139038,39.166946 
	C611.948975,51.460911 649.743530,70.013855 685.101929,93.695450 
	C713.190918,112.508347 738.243713,134.901382 761.004456,159.729324 
	C785.147217,186.064957 805.352905,215.286377 822.075439,246.960159 
	C842.286377,285.241333 856.711487,325.536316 864.308655,368.080566 
	C867.685669,386.991821 868.862549,406.297302 870.992310,425.428894 
	C871.432922,429.387085 871.939209,433.366669 871.958313,437.338562 
	C872.099487,466.818024 870.151733,496.134949 864.624084,525.574219 
M315.713837,513.500183 
	C315.714172,502.669922 315.686676,491.839478 315.744843,481.009521 
	C315.753571,479.386566 315.606079,477.331024 316.477386,476.213745 
	C322.684143,468.254791 329.136810,460.487549 335.985352,452.077087 
	C337.614838,454.763367 338.840729,456.678253 339.963898,458.651611 
	C359.985413,493.829102 380.031097,528.992981 399.939606,564.234314 
	C401.610046,567.191345 403.339844,568.471375 406.877411,568.447571 
	C431.703217,568.280090 456.530701,568.363037 481.357635,568.346741 
	C482.810486,568.345764 484.263184,568.177551 486.286530,568.051697 
	C485.358917,566.337158 484.723602,565.058899 483.996948,563.834961 
	C451.257141,508.689392 418.534943,453.533356 385.699432,398.444824 
	C383.705444,395.099487 383.133453,392.706696 385.606018,389.123962 
	C413.519165,348.678406 441.233734,308.095856 468.989258,267.541565 
	C472.430939,262.512817 475.801208,257.435211 479.586273,251.813309 
	C477.847870,251.597977 476.911102,251.381271 475.974182,251.380569 
	C450.813995,251.361618 425.653046,251.283707 400.495148,251.523376 
	C398.549744,251.541901 395.971100,253.373123 394.788452,255.111389 
	C369.581757,292.159943 344.535736,329.317810 319.440704,366.442383 
	C318.616760,367.661316 317.606964,368.754639 316.683807,369.906525 
	C316.360474,369.730988 316.037170,369.555450 315.713837,369.379913 
	C315.713837,367.398193 315.713837,365.416443 315.713806,363.434723 
	C315.713623,327.777222 315.669373,292.119629 315.778931,256.462463 
	C315.790344,252.744690 315.056396,251.217590 310.857697,251.261124 
	C289.532135,251.482300 268.203094,251.356216 246.875275,251.380478 
	C245.440598,251.382111 244.006180,251.620102 242.551453,251.749954 
	C242.551453,357.436371 242.551453,462.653015 242.551453,567.906372 
	C267.064423,567.906372 291.253937,567.906372 315.713806,567.906372 
	C315.713806,549.803284 315.713806,532.151794 315.713837,513.500183 
M801.894897,463.337585 
	C817.396301,453.912140 832.874939,444.448944 848.421753,435.099060 
	C850.960999,433.571960 852.234680,431.838989 852.089661,428.722198 
	C851.842163,423.403534 851.482971,417.996643 852.148071,412.750732 
	C853.158386,404.782013 850.188904,400.495087 843.088745,396.397400 
	C801.885925,372.618164 761.067200,348.173401 720.103760,323.978851 
	C714.902161,320.906525 709.613831,317.980896 703.996887,314.776947 
	C703.693604,316.199615 703.445862,316.821320 703.445129,317.443268 
	C703.418518,340.096405 703.346802,362.750183 703.547974,385.401489 
	C703.562683,387.063293 705.192871,389.328369 706.716064,390.260040 
	C717.500549,396.856384 728.465027,403.157776 739.347168,409.595459 
	C744.436218,412.606018 749.469727,415.710449 755.203064,419.180664 
	C752.897766,420.689941 751.403320,421.679138 749.898376,422.652039 
	C735.638367,431.870728 721.419800,441.154785 707.077332,450.243317 
	C704.359741,451.965424 703.307861,453.848358 703.330322,457.081207 
	C703.471558,477.401550 703.393860,497.723358 703.418640,518.044678 
	C703.420410,519.453918 703.665283,520.862915 703.868835,523.039001 
	C736.801453,502.982025 769.037964,483.349060 801.894897,463.337585 
M47.424362,398.954956 
	C40.340225,401.676758 37.938255,406.742859 38.971302,414.204590 
	C39.604988,418.781708 39.484406,423.562012 38.979671,428.171936 
	C38.400288,433.463684 40.732361,436.102753 45.092209,438.653931 
	C82.436546,460.506165 119.638176,482.602203 156.894058,504.605774 
	C166.738113,510.419769 176.622360,516.165710 186.899002,522.183472 
	C187.201202,520.698547 187.552475,519.773926 187.553787,518.848694 
	C187.585724,496.356628 187.649826,473.863892 187.438080,451.373749 
	C187.422623,449.731232 185.726089,447.509552 184.191223,446.571777 
	C173.258713,439.892334 162.153885,433.495544 151.127487,426.968964 
	C146.219559,424.063995 141.366196,421.066833 136.038681,417.839233 
	C137.855209,416.472961 138.859695,415.612488 139.962021,414.904327 
	C154.392990,405.633453 168.793823,396.314178 183.315414,387.187164 
	C186.292755,385.315887 187.701645,383.306641 187.670059,379.624847 
	C187.497116,359.466736 187.595200,339.306305 187.574707,319.146698 
	C187.573257,317.711182 187.368134,316.275848 187.198349,314.068512 
	C184.795853,315.451263 182.959961,316.456757 181.173492,317.543488 
	C136.790665,344.542236 92.413017,371.549530 47.424362,398.954956 
M673.433167,335.959686 
	C683.996643,321.366608 694.560181,306.773529 705.822937,291.214539 
	C702.753601,291.214539 701.126770,291.214569 699.499939,291.214569 
	C680.837341,291.214569 662.173462,291.327057 643.513062,291.123871 
	C639.570007,291.080933 637.157288,292.355957 634.866089,295.526184 
	C581.679993,369.116486 528.396240,442.636169 475.142639,516.177612 
	C474.316925,517.317871 473.642181,518.567505 472.388611,520.583740 
	C474.886566,520.583740 476.493073,520.583740 478.099579,520.583740 
	C496.428925,520.583740 514.759827,520.457520 533.086548,520.674988 
	C537.507690,520.727478 540.324829,519.482117 543.006958,515.771851 
	C586.245544,455.958557 629.647156,396.263062 673.433167,335.959686 
z"/>
<path fill="#55C8FB" opacity="1.000000" stroke="none" 
	d="
M315.713806,514.000244 
	C315.713806,532.151794 315.713806,549.803284 315.713806,567.906372 
	C291.253937,567.906372 267.064423,567.906372 242.551453,567.906372 
	C242.551453,462.653015 242.551453,357.436371 242.551453,251.749954 
	C244.006180,251.620102 245.440598,251.382111 246.875275,251.380478 
	C268.203094,251.356216 289.532135,251.482300 310.857697,251.261124 
	C315.056396,251.217590 315.790344,252.744690 315.778931,256.462463 
	C315.669373,292.119629 315.713623,327.777222 315.713806,363.434723 
	C315.713837,365.416443 315.713837,367.398193 315.713837,369.379913 
	C316.037170,369.555450 316.360474,369.730988 316.683807,369.906525 
	C317.606964,368.754639 318.616760,367.661316 319.440704,366.442383 
	C344.535736,329.317810 369.581757,292.159943 394.788452,255.111389 
	C395.971100,253.373123 398.549744,251.541901 400.495148,251.523376 
	C425.653046,251.283707 450.813995,251.361618 475.974182,251.380569 
	C476.911102,251.381271 477.847870,251.597977 479.586273,251.813309 
	C475.801208,257.435211 472.430939,262.512817 468.989258,267.541565 
	C441.233734,308.095856 413.519165,348.678406 385.606018,389.123962 
	C383.133453,392.706696 383.705444,395.099487 385.699432,398.444824 
	C418.534943,453.533356 451.257141,508.689392 483.996948,563.834961 
	C484.723602,565.058899 485.358917,566.337158 486.286530,568.051697 
	C484.263184,568.177551 482.810486,568.345764 481.357635,568.346741 
	C456.530701,568.363037 431.703217,568.280090 406.877411,568.447571 
	C403.339844,568.471375 401.610046,567.191345 399.939606,564.234314 
	C380.031097,528.992981 359.985413,493.829102 339.963898,458.651611 
	C338.840729,456.678253 337.614838,454.763367 335.985352,452.077087 
	C329.136810,460.487549 322.684143,468.254791 316.477386,476.213745 
	C315.606079,477.331024 315.753571,479.386566 315.744843,481.009521 
	C315.686676,491.839478 315.714172,502.669922 315.713806,514.000244 
z"/>
<path fill="#007AF4" opacity="1.000000" stroke="none" 
	d="
M801.584717,463.526855 
	C769.037964,483.349060 736.801453,502.982025 703.868835,523.039001 
	C703.665283,520.862915 703.420410,519.453918 703.418640,518.044678 
	C703.393860,497.723358 703.471558,477.401550 703.330322,457.081207 
	C703.307861,453.848358 704.359741,451.965424 707.077332,450.243317 
	C721.419800,441.154785 735.638367,431.870728 749.898376,422.652039 
	C751.403320,421.679138 752.897766,420.689941 755.203064,419.180664 
	C749.469727,415.710449 744.436218,412.606018 739.347168,409.595459 
	C728.465027,403.157776 717.500549,396.856384 706.716064,390.260040 
	C705.192871,389.328369 703.562683,387.063293 703.547974,385.401489 
	C703.346802,362.750183 703.418518,340.096405 703.445129,317.443268 
	C703.445862,316.821320 703.693604,316.199615 703.996887,314.776947 
	C709.613831,317.980896 714.902161,320.906525 720.103760,323.978851 
	C761.067200,348.173401 801.885925,372.618164 843.088745,396.397400 
	C850.188904,400.495087 853.158386,404.782013 852.148071,412.750732 
	C851.482971,417.996643 851.842163,423.403534 852.089661,428.722198 
	C852.234680,431.838989 850.960999,433.571960 848.421753,435.099060 
	C832.874939,444.448944 817.396301,453.912140 801.584717,463.526855 
z"/>
<path fill="#007AF4" opacity="1.000000" stroke="none" 
	d="
M47.729408,398.755127 
	C92.413017,371.549530 136.790665,344.542236 181.173492,317.543488 
	C182.959961,316.456757 184.795853,315.451263 187.198349,314.068512 
	C187.368134,316.275848 187.573257,317.711182 187.574707,319.146698 
	C187.595200,339.306305 187.497116,359.466736 187.670059,379.624847 
	C187.701645,383.306641 186.292755,385.315887 183.315414,387.187164 
	C168.793823,396.314178 154.392990,405.633453 139.962021,414.904327 
	C138.859695,415.612488 137.855209,416.472961 136.038681,417.839233 
	C141.366196,421.066833 146.219559,424.063995 151.127487,426.968964 
	C162.153885,433.495544 173.258713,439.892334 184.191223,446.571777 
	C185.726089,447.509552 187.422623,449.731232 187.438080,451.373749 
	C187.649826,473.863892 187.585724,496.356628 187.553787,518.848694 
	C187.552475,519.773926 187.201202,520.698547 186.899002,522.183472 
	C176.622360,516.165710 166.738113,510.419769 156.894058,504.605774 
	C119.638176,482.602203 82.436546,460.506165 45.092209,438.653931 
	C40.732361,436.102753 38.400288,433.463684 38.979671,428.171936 
	C39.484406,423.562012 39.604988,418.781708 38.971302,414.204590 
	C37.938255,406.742859 40.340225,401.676758 47.729408,398.755127 
z"/>
<path fill="#007AF4" opacity="1.000000" stroke="none" 
	d="
M673.222473,336.250275 
	C629.647156,396.263062 586.245544,455.958557 543.006958,515.771851 
	C540.324829,519.482117 537.507690,520.727478 533.086548,520.674988 
	C514.759827,520.457520 496.428925,520.583740 478.099579,520.583740 
	C476.493073,520.583740 474.886566,520.583740 472.388611,520.583740 
	C473.642181,518.567505 474.316925,517.317871 475.142639,516.177612 
	C528.396240,442.636169 581.679993,369.116486 634.866089,295.526184 
	C637.157288,292.355957 639.570007,291.080933 643.513062,291.123871 
	C662.173462,291.327057 680.837341,291.214569 699.499939,291.214569 
	C701.126770,291.214569 702.753601,291.214539 705.822937,291.214539 
	C694.560181,306.773529 683.996643,321.366608 673.222473,336.250275 
z"/>
</svg>